<?xml version="1.0" standalone="no"?>
<!DOCTYPE svg PUBLIC "-//W3C//DTD SVG 20010904//EN"
 "http://www.w3.org/TR/2001/REC-SVG-20010904/DTD/svg10.dtd">
<svg version="1.0" xmlns="http://www.w3.org/2000/svg"
 width="260.000000pt" height="260.000000pt" viewBox="0 0 260.000000 260.000000"
 preserveAspectRatio="xMidYMid meet">
<metadata>
Created by potrace 1.11, written by Peter Selinger 2001-2013
</metadata>
<g transform="translate(0.000000,260.000000) scale(0.100000,-0.100000)"
fill="#000000" stroke="none">
<path d="M1488 2434 c-21 -7 -38 -11 -38 -9 0 5 -68 -27 -105 -50 -72 -44
-127 -146 -142 -265 -10 -76 -9 -454 1 -520 4 -25 20 -72 36 -105 46 -94 53
-101 421 -372 142 -105 171 -135 186 -193 14 -54 10 -409 -5 -446 -20 -46 -61
-66 -141 -65 -78 1 -108 10 -136 41 -19 21 -20 40 -25 294 l-5 271 -165 0
c-130 0 -166 -2 -170 -13 -12 -28 -3 -547 10 -607 24 -115 88 -205 175 -246
80 -38 142 -47 319 -47 159 0 177 2 249 27 43 14 98 42 122 61 46 36 97 120
111 180 4 19 9 42 12 50 2 8 5 134 6 280 4 430 -10 464 -280 661 -71 51 -133
97 -139 101 -5 5 -48 37 -95 72 -103 77 -119 96 -134 155 -16 64 -14 348 4
390 18 44 58 62 135 62 82 0 130 -21 145 -65 5 -17 11 -130 13 -251 l2 -220
170 0 170 0 -1 255 c0 276 -4 309 -39 386 -43 97 -127 161 -246 188 -79 19
-368 19 -421 0z"/>
<path d="M563 1482 c0 -794 -2 -952 -14 -977 -23 -48 -69 -65 -180 -65 l-97 0
0 -161 0 -160 146 2 c169 3 227 12 299 45 94 45 156 126 185 244 8 31 12 342
13 1033 l1 987 -176 0 -177 0 0 -948z"/>
</g>
</svg>
